PathFileType	4	(X/Y/Z)	Kaydara																																																																																																																									
DataRate	CameraRate	NumFrames	NumMarkers	Units	OrigDataRate	OrigDataStartFrame	OrigNumFrames																																																																																																																					
30	30	5	41	mm	30	1	341																																																																																																																					
Frame#	Time	NABA_LFHD			NABA_RFHD			NABA_LBHD			NABA_RBHD			NABA_LFTShould			NABA_RFTShould			NABA_LRRShould			NABA_RRRShould			NABA_T10			NABA_STRN			NABA_TRUN			NABA_LSHO			NABA_LUPA			NABA_LELB			NABA_LFRM			NABA_LWRA			NABA_LWRB			NABA_LFIN			NABA_RSHO			NABA_RUPA			NABA_RELB			NABA_RFRM			NABA_RWRA			NABA_RWRB			NABA_RFIN			NABA_LFWT			NABA_RFWT			NABA_LBWT			NABA_RBWT			NABA_LTHI			NABA_LKNE			NABA_LSHN			NABA_LANK			NABA_LHEE			NABA_LTOE			NABA_RTHI			NABA_RKNE			NABA_RSHN			NABA_RANK			NABA_RHEE			NABA_RTOE		
		X1	Y1	Z1	X2	Y2	Z2	X3	Y3	Z3	X4	Y4	Z4	X5	Y5	Z5	X6	Y6	Z6	X7	Y7	Z7	X8	Y8	Z8	X9	Y9	Z9	X10	Y10	Z10	X11	Y11	Z11	X12	Y12	Z12	X13	Y13	Z13	X14	Y14	Z14	X15	Y15	Z15	X16	Y16	Z16	X17	Y17	Z17	X18	Y18	Z18	X19	Y19	Z19	X20	Y20	Z20	X21	Y21	Z21	X22	Y22	Z22	X23	Y23	Z23	X24	Y24	Z24	X25	Y25	Z25	X26	Y26	Z26	X27	Y27	Z27	X28	Y28	Z28	X29	Y29	Z29	X30	Y30	Z30	X31	Y31	Z31	X32	Y32	Z32	X33	Y33	Z33	X34	Y34	Z34	X35	Y35	Z35	X36	Y36	Z36	X37	Y37	Z37	X38	Y38	Z38	X39	Y39	Z39	X40	Y40	Z40	X41	Y41	Z41
																																																																																																																												
1	0.01	233.87062	1548.91174	-1861.23383	62.98498	1520.88394	-1844.68307	243.70914	1587.771	-1980.31876	27.70382	1557.64053	-1933.53104	216.14317	1341.78619	-1983.95966	84.15023	1330.71777	-1980.69199	210.70732	1398.34473	-2101.09207	65.22655	1388.53958	-2088.47488	146.87452	1230.61951	-2173.17795	154.33863	1282.15683	-1934.54254	160.07959	1183.60092	-1887.34283	305.07721	1369.71893	-2036.06567	367.32368	1157.08717	-2085.82077	378.73352	1052.69577	-2074.09515	367.91939	970.17166	-2093.86398	322.64961	823.97385	-2010.26917	393.30231	823.01682	-2021.62552	380.16449	766.78726	-1973.7973	-0.99464	1354.37164	-2015.28976	-59.22381	1157.87491	-2088.54645	-81.27146	1024.25026	-2041.89697	-82.71864	929.11911	-2033.68134	-11.88973	807.04849	-1959.20776	-85.10946	794.47372	-1955.62317	-68.20525	757.71591	-1924.50577	283.05309	958.36639	-1975.80719	16.17827	956.88278	-1963.60565	225.48092	1014.17511	-2144.15115	58.45747	1028.56308	-2141.28738	284.30115	657.58003	-2105.56595	289.10685	508.77052	-2045.89432	244.09941	310.51916	-2020.3894	274.40556	160.2766	-2088.41431	217.59748	108.8107	-2140.38986	253.85796	78.18292	-1955.67413	17.84593	671.10649	-2103.12332	38.16946	509.29909	-1989.70123	52.44102	334.67384	-2010.68314	50.50014	141.87469	-2075.45685	99.91819	96.91621	-2142.43286	70.70342	83.39918	-1964.85519
2	0.043	232.80527	1548.08502	-1859.88052	62.23787	1519.91714	-1843.41843	242.73623	1587.78595	-1979.00665	26.90149	1556.93878	-1931.95206	212.94624	1344.45068	-1982.66693	83.59042	1330.3476	-1980.41931	209.92634	1398.3667	-2100.46677	64.49307	1388.49686	-2087.82928	146.27933	1230.78522	-2172.74658	154.01803	1281.87378	-1934.34387	159.58803	1183.14827	-1887.27859	305.24321	1368.95721	-2032.60635	366.10538	1156.94817	-2086.19095	377.35294	1051.57722	-2072.73453	366.52439	970.12878	-2094.64432	321.04839	823.43277	-2011.51443	392.05063	822.4659	-2023.43323	378.94741	765.82832	-1975.93185	-1.63614	1354.09897	-2014.73663	-59.78545	1157.78053	-2088.30963	-81.98229	1024.15535	-2041.91299	-83.73703	929.06532	-2034.10858	-13.49782	806.45821	-1960.21255	-86.77085	794.09607	-1956.71722	-70.01518	756.91589	-1925.89264	282.65871	958.54004	-1975.16281	15.56131	956.81969	-1962.98172	225.18421	1014.26071	-2143.69888	58.13502	1028.57056	-2141.04416	284.07795	657.6506	-2105.17059	288.78717	508.77197	-2045.54321	243.7734	310.55004	-2020.23636	274.22558	160.22783	-2088.44055	217.50065	108.89215	-2140.28183	253.77291	78.14967	-1955.57297	17.67506	671.15959	-2103.20969	37.96495	509.24664	-1989.74686	52.18485	334.62471	-2010.65796	50.42529	141.79972	-2075.50385	99.98027	96.89228	-2142.42966	70.7115	83.37703	-1964.87869
3	0.077	232.29431	1547.44019	-1858.46558	61.76076	1518.91373	-1841.97083	241.93346	1587.65503	-1977.38907	26.18141	1556.30386	-1930.39627	215.33342	1341.39191	-1983.24814	83.12877	1329.97025	-1979.86572	209.38688	1398.26569	-2099.49036	64.02377	1388.46222	-2086.98593	145.88145	1230.93536	-2172.24564	153.2792	1281.14502	-1933.64105	159.1436	1182.60262	-1887.08771	304.60762	1368.6676	-2032.28439	365.86983	1156.04309	-2084.87335	376.39782	1050.99228	-2072.2998	365.43972	970.02945	-2095.26688	319.50493	823.04832	-2012.01645	390.96954	821.89461	-2024.81659	377.92767	764.99191	-1977.77054	-2.14984	1353.90457	-2014.08051	-60.28795	1157.80586	-2087.96463	-82.82132	1024.05777	-2041.80405	-84.856	929.07623	-2034.14597	-14.93945	806.0434	-1960.5101	-88.2447	793.92982	-1956.89545	-71.60885	756.79153	-1926.25427	282.42828	958.66035	-1974.16031	16.05221	956.5464	-1965.20111	225.05575	1014.3013	-2143.29666	57.96606	1028.60603	-2140.75607	283.92397	657.6786	-2104.86969	288.61362	508.81439	-2045.25497	243.60718	310.58413	-2020.0296	274.09552	160.14778	-2088.44055	217.41283	108.97059	-2140.16983	253.73701	78.14069	-1955.49026	17.41772	671.35185	-2103.36288	37.76686	509.17397	-1989.78561	52.6162	334.73385	-2011.34354	50.38955	141.84882	-2075.5481	100.00264	96.88609	-2142.45255	70.68079	83.36115	-1964.88876
4	0.11	231.83491	1546.81671	-1856.95557	61.16387	1518.00308	-1840.58212	241.46614	1587.57828	-1975.71579	25.68385	1555.70801	-1928.80096	215.04597	1340.59158	-1982.90924	82.72848	1329.54514	-1979.20242	209.04142	1398.32993	-2098.51166	63.72568	1388.42209	-2086.01044	145.56076	1231.17958	-2171.65863	152.899	1280.58823	-1933.09662	158.7764	1182.0768	-1886.83365	304.14469	1368.16696	-2030.80963	365.39795	1155.91293	-2084.72076	375.70843	1050.76637	-2072.38373	364.64516	969.93996	-2095.66559	319.01348	822.40616	-2013.99689	390.15404	821.49994	-2025.95337	377.06367	764.37706	-1979.10706	-2.41628	1353.66028	-2013.25089	-60.6931	1157.81517	-2087.6651	-83.60282	1024.0184	-2041.76529	-85.75363	929.00574	-2034.10721	-16.11538	805.765	-1960.32349	-89.42138	793.90869	-1956.69098	-73.08293	756.92497	-1925.94131	282.34213	958.71109	-1973.89191	15.91138	956.59157	-1964.61777	224.94617	1014.3338	-2143.09479	57.80483	1028.57224	-2140.46417	283.79429	657.6326	-2104.62128	288.52442	508.81828	-2045.03204	243.48902	310.58084	-2019.80011	273.95868	160.17418	-2088.20358	217.24594	109.07224	-2140.04242	253.69373	78.10033	-1955.4129	17.96635	670.839	-2102.52884	37.56209	509.10629	-1989.42001	52.54318	334.67365	-2011.12503	50.34157	141.77786	-2075.58548	100.02104	96.94044	-2142.48734	70.69845	83.34912	-1964.96155
5	0.143	231.3961	1546.07483	-1855.21606	60.78682	1517.00653	-1839.09409	241.0717	1587.28149	-1973.78159	25.23865	1555.08606	-1927.23099	215.07351	1340.51315	-1982.03918	82.50971	1329.06982	-1978.50861	208.85559	1398.40729	-2097.47086	63.52527	1388.41263	-2085.01083	145.42315	1231.43486	-2171.035	152.87122	1280.14862	-1932.56409	158.64053	1181.4193	-1886.50146	303.96864	1368.03116	-2029.90295	365.10391	1155.76904	-2084.4339	375.32082	1050.6073	-2072.4202	364.16592	969.87144	-2095.90988	318.60203	821.80176	-2015.88623	389.52385	821.21849	-2026.60843	376.37833	764.00169	-1980.00183	-2.52196	1353.41812	-2012.33994	-60.8766	1157.74986	-2087.18445	-84.15595	1023.94363	-2041.55624	-86.40853	928.89626	-2033.86703	-17.07368	805.73036	-1959.65805	-90.26319	793.92876	-1956.14166	-74.19183	757.11823	-1925.30914	282.43769	958.70605	-1973.73367	15.93318	956.52542	-1964.03717	224.77577	1014.35951	-2142.82928	57.68341	1028.57529	-2140.08148	283.6026	657.69058	-2104.50531	288.5214	508.83507	-2044.97482	243.45425	310.62038	-2019.7081	273.92767	160.23195	-2088.00949	217.1187	109.14709	-2139.95911	253.66379	78.09333	-1955.3389	18.08222	670.78682	-2102.08542	37.67517	508.9994	-1989.05823	52.62189	334.53011	-2010.81772	50.31106	141.7747	-2075.52811	100.06319	96.97474	-2142.48657	70.73749	83.37272	-1964.95773
